<?xml version="1.0" standalone="no"?>
<!DOCTYPE svg PUBLIC "-//W3C//DTD SVG 20010904//EN"
 "http://www.w3.org/TR/2001/REC-SVG-20010904/DTD/svg10.dtd">
<svg version="1.0" xmlns="http://www.w3.org/2000/svg"
 width="640.000000pt" height="641.000000pt" viewBox="0 0 640.000000 641.000000"
 preserveAspectRatio="xMidYMid meet">

<g transform="translate(0.000000,641.000000) scale(0.100000,-0.100000)"
fill="#000000" stroke="none">
<path d="M0 3205 l0 -3205 3200 0 3200 0 0 3205 0 3205 -3200 0 -3200 0 0
-3205z m3217 1773 c-1 -40 -3 -10 -3 67 0 77 1 110 3 73 2 -37 2 -100 0 -140z
m0 -160 c-2 -13 -4 -5 -4 17 -1 22 1 32 4 23 2 -10 2 -28 0 -40z m0 -135 c-2
-16 -4 -3 -4 27 0 30 2 43 4 28 2 -16 2 -40 0 -55z m0 -160 c-2 -21 -4 -6 -4
32 0 39 2 55 4 38 2 -18 2 -50 0 -70z m118 -81 c84 -43 144 -137 145 -224 l0
-48 105 0 c58 0 105 -3 105 -6 0 -3 -25 -47 -55 -99 -30 -51 -55 -96 -55 -99
0 -3 56 -6 125 -6 75 0 125 -4 125 -10 0 -5 -95 -173 -211 -372 -215 -370
-290 -500 -321 -553 -63 -108 -80 -149 -73 -179 8 -40 8 -69 -3 -136 l-9 -55
-2 48 c0 26 -7 56 -13 67 -10 16 -10 24 0 40 27 43 14 75 -129 321 -78 134
-151 260 -161 279 -11 19 -44 76 -73 125 -147 251 -235 405 -235 415 0 6 44
10 120 10 81 0 120 4 120 11 0 6 -22 51 -50 100 -27 49 -50 91 -50 94 0 3 44
5 99 5 l98 0 7 52 c14 104 68 179 161 225 42 20 61 23 120 20 45 -2 84 -11
110 -25z m-118 -1944 c-2 -24 -4 -5 -4 42 0 47 2 66 4 43 2 -24 2 -62 0 -85z
m0 -175 c-2 -21 -4 -6 -4 32 0 39 2 55 4 38 2 -18 2 -50 0 -70z m-1583 50 c73
-26 150 -104 170 -173 21 -72 20 -118 -5 -185 -25 -66 -70 -115 -139 -150 -71
-36 -175 -35 -248 1 -173 86 -205 319 -61 448 82 74 182 94 283 59z m1748 -83
c25 -47 73 -140 108 -207 34 -68 65 -123 69 -123 3 0 53 91 110 203 96 187
131 246 131 222 0 -6 11 -126 25 -269 13 -142 22 -262 19 -267 -7 -12 -41 -12
-48 0 -3 4 -13 84 -22 177 -8 93 -17 170 -19 172 -2 2 -44 -75 -95 -172 -50
-97 -95 -178 -98 -180 -4 -2 -50 76 -102 174 -52 99 -96 178 -98 176 -2 -3
-11 -82 -20 -178 l-17 -173 -27 -3 c-35 -4 -35 -6 -8 258 11 107 20 213 20
236 0 42 8 60 21 47 3 -5 27 -46 51 -93z m863 -80 c128 -289 155 -353 155
-362 0 -5 -12 -8 -27 -6 -30 3 -35 12 -83 121 l-29 67 -99 0 -100 0 -40 -92
c-38 -86 -43 -93 -71 -96 -17 -2 -31 -1 -31 2 0 3 20 50 44 103 24 54 74 168
111 253 74 170 85 193 90 188 2 -1 38 -82 80 -178z m416 6 c85 -93 167 -184
182 -203 16 -18 33 -31 38 -28 5 4 9 93 9 201 l0 194 30 0 30 0 0 -275 c0
-151 -4 -275 -8 -275 -4 0 -93 93 -197 207 l-190 207 -3 -202 -2 -202 -30 0
-30 0 0 276 c0 152 4 274 8 272 5 -1 78 -79 163 -172z m-2714 152 c4 -7 45
-98 90 -203 45 -104 85 -189 89 -188 5 1 46 91 94 200 79 184 87 198 113 201
18 2 27 -1 27 -10 0 -8 -49 -126 -110 -262 -60 -137 -110 -253 -110 -258 0 -5
-6 -8 -12 -6 -12 4 -52 90 -189 407 -27 63 -49 118 -49 123 0 13 48 9 57 -4z
m791 -20 l3 -28 -115 0 -116 0 0 -85 0 -84 98 -3 c96 -3 97 -3 97 -28 0 -25
-1 -25 -98 -28 l-98 -3 3 -92 3 -92 120 -5 c72 -3 119 -9 118 -15 -9 -48 -2
-46 -155 -43 l-143 3 -3 255 c-1 140 0 260 3 268 3 10 37 12 142 10 l138 -3 3
-27z m349 0 c48 -31 73 -80 73 -141 0 -57 -31 -104 -93 -138 l-47 -25 81 -100
c79 -97 80 -99 54 -102 -15 -2 -33 -1 -40 2 -7 2 -50 51 -96 108 l-84 103 -5
-105 c-5 -104 -5 -105 -31 -108 -25 -3 -26 -1 -32 65 -9 88 -9 386 0 437 l6
38 88 -4 c73 -3 93 -8 126 -30z m130 -165 c-2 -16 -4 -5 -4 22 0 28 2 40 4 28
2 -13 2 -35 0 -50z m0 -120 c-3 -10 -5 -2 -5 17 0 19 2 27 5 18 2 -10 2 -26 0
-35z m0 -120 c-2 -16 -4 -5 -4 22 0 28 2 40 4 28 2 -13 2 -35 0 -50z"/>
<path d="M3145 4433 c-35 -7 -98 -57 -130 -101 -25 -37 -30 -55 -33 -117 -4
-66 -1 -79 24 -125 32 -60 71 -93 133 -115 110 -38 227 9 284 114 49 90 29
219 -45 288 -54 50 -150 74 -233 56z"/>
<path d="M2780 4138 c1 -7 22 -49 48 -93 l48 -80 97 -3 c53 -1 97 -1 97 1 0 2
-21 25 -48 53 -26 27 -53 68 -61 92 l-14 42 -84 0 c-60 0 -83 -3 -83 -12z"/>
<path d="M3465 4104 c-10 -26 -37 -67 -61 -92 -24 -25 -44 -47 -44 -49 0 -2
43 -3 95 -3 l94 0 51 85 c27 47 50 90 50 95 0 6 -36 10 -84 10 l-83 0 -18 -46z"/>
<path d="M2650 3922 c0 -4 80 -145 178 -312 97 -168 215 -371 261 -451 46 -80
92 -157 102 -170 19 -24 19 -24 19 55 0 72 -2 80 -25 98 -44 35 -23 108 32
108 51 0 71 -75 28 -108 -23 -18 -25 -27 -25 -97 0 -43 4 -74 9 -71 5 4 25 34
44 69 32 58 164 285 302 522 130 223 205 355 205 360 0 3 -51 5 -112 5 l-113
0 -95 -166 c-52 -92 -128 -223 -167 -293 -55 -94 -73 -136 -74 -166 l-2 -40
-6 45 c-7 48 -8 51 -209 395 l-128 220 -112 3 c-62 1 -112 -1 -112 -6z"/>
<path d="M2900 3926 c0 -4 185 -326 276 -480 16 -27 34 -51 39 -52 6 -2 64 92
130 209 66 116 135 237 153 269 l33 58 -315 0 c-174 0 -316 -2 -316 -4z"/>
<path d="M1460 2319 c-72 -29 -125 -99 -136 -182 -21 -152 125 -278 274 -236
70 20 137 90 151 160 14 65 -2 140 -40 187 -52 67 -173 101 -249 71z"/>
<path d="M4122 2172 c-18 -43 -32 -81 -32 -85 0 -4 32 -7 70 -7 53 0 70 3 70
14 0 18 -61 156 -70 156 -3 0 -20 -35 -38 -78z"/>
<path d="M2930 2210 l0 -112 57 4 c48 4 61 10 85 37 21 23 28 42 28 71 0 29
-7 48 -28 71 -24 27 -37 33 -85 37 l-57 4 0 -112z"/>
</g>
</svg>
