<?xml version="1.0"?>
<svg width="640" height="641" xmlns="http://www.w3.org/2000/svg" xmlns:svg="http://www.w3.org/2000/svg" preserveAspectRatio="xMidYMid meet" version="1.0">
 <g class="layer">
  <title>Layer 1</title>
  <g fill="#000000" id="svg_1" transform="matrix(0.101402 0 0 -0.100155 0.0144798 641.998)">
   <path d="m0,3205l0,-3205l3200,0l3200,0l0,3205l0,3205l-3200,0l-3200,0l0,-3205zm3217,1773c-1,-40 -3,-10 -3,67c0,77 1,110 3,73c2,-37 2,-100 0,-140zm0,-160c-2,-13 -4,-5 -4,17c-1,22 1,32 4,23c2,-10 2,-28 0,-40zm0,-135c-2,-16 -4,-3 -4,27c0,30 2,43 4,28c2,-16 2,-40 0,-55zm0,-160c-2,-21 -4,-6 -4,32c0,39 2,55 4,38c2,-18 2,-50 0,-70zm118,-81c84,-43 144,-137 145,-224l0,-48l105,0c58,0 105,-3 105,-6c0,-3 -25,-47 -55,-99c-30,-51 -55,-96 -55,-99c0,-3 56,-6 125,-6c75,0 125,-4 125,-10c0,-5 -95,-173 -211,-372c-215,-370 -290,-500 -321,-553c-63,-108 -80,-149 -73,-179c8,-40 8,-69 -3,-136l-9,-55l-2,48c0,26 -7,56 -13,67c-10,16 -10,24 0,40c27,43 14,75 -129,321c-78,134 -151,260 -161,279c-11,19 -44,76 -73,125c-147,251 -235,405 -235,415c0,6 44,10 120,10c81,0 120,4 120,11c0,6 -22,51 -50,100c-27,49 -50,91 -50,94c0,3 44,5 99,5l98,0l7,52c14,104 68,179 161,225c42,20 61,23 120,20c45,-2 84,-11 110,-25zm-118,-1944c-2,-24 -4,-5 -4,42c0,47 2,66 4,43c2,-24 2,-62 0,-85zm0,-175c-2,-21 -4,-6 -4,32c0,39 2,55 4,38c2,-18 2,-50 0,-70zm-1583,50c73,-26 150,-104 170,-173c21,-72 20,-118 -5,-185c-25,-66 -70,-115 -139,-150c-71,-36 -175,-35 -248,1c-173,86 -205,319 -61,448c82,74 182,94 283,59zm1748,-83c25,-47 73,-140 108,-207c34,-68 65,-123 69,-123c3,0 53,91 110,203c96,187 131,246 131,222c0,-6 11,-126 25,-269c13,-142 22,-262 19,-267c-7,-12 -41,-12 -48,0c-3,4 -13,84 -22,177c-8,93 -17,170 -19,172c-2,2 -44,-75 -95,-172c-50,-97 -95,-178 -98,-180c-4,-2 -50,76 -102,174c-52,99 -96,178 -98,176c-2,-3 -11,-82 -20,-178l-17,-173l-27,-3c-35,-4 -35,-6 -8,258c11,107 20,213 20,236c0,42 8,60 21,47c3,-5 27,-46 51,-93zm863,-80c128,-289 155,-353 155,-362c0,-5 -12,-8 -27,-6c-30,3 -35,12 -83,121l-29,67l-99,0l-100,0l-40,-92c-38,-86 -43,-93 -71,-96c-17,-2 -31,-1 -31,2c0,3 20,50 44,103c24,54 74,168 111,253c74,170 85,193 90,188c2,-1 38,-82 80,-178zm416,6c85,-93 167,-184 182,-203c16,-18 33,-31 38,-28c5,4 9,93 9,201l0,194l30,0l30,0l0,-275c0,-151 -4,-275 -8,-275c-4,0 -93,93 -197,207l-190,207l-3,-202l-2,-202l-30,0l-30,0l0,276c0,152 4,274 8,272c5,-1 78,-79 163,-172zm-2714,152c4,-7 45,-98 90,-203c45,-104 85,-189 89,-188c5,1 46,91 94,200c79,184 87,198 113,201c18,2 27,-1 27,-10c0,-8 -49,-126 -110,-262c-60,-137 -110,-253 -110,-258c0,-5 -6,-8 -12,-6c-12,4 -52,90 -189,407c-27,63 -49,118 -49,123c0,13 48,9 57,-4zm791,-20l3,-28l-115,0l-116,0l0,-85l0,-84l98,-3c96,-3 97,-3 97,-28c0,-25 -1,-25 -98,-28l-98,-3l3,-92l3,-92l120,-5c72,-3 119,-9 118,-15c-9,-48 -2,-46 -155,-43l-143,3l-3,255c-1,140 0,260 3,268c3,10 37,12 142,10l138,-3l3,-27zm349,0c48,-31 73,-80 73,-141c0,-57 -31,-104 -93,-138l-47,-25l81,-100c79,-97 80,-99 54,-102c-15,-2 -33,-1 -40,2c-7,2 -50,51 -96,108l-84,103l-5,-105c-5,-104 -5,-105 -31,-108c-25,-3 -26,-1 -32,65c-9,88 -9,386 0,437l6,38l88,-4c73,-3 93,-8 126,-30zm130,-165c-2,-16 -4,-5 -4,22c0,28 2,40 4,28c2,-13 2,-35 0,-50zm0,-120c-3,-10 -5,-2 -5,17c0,19 2,27 5,18c2,-10 2,-26 0,-35zm0,-120c-2,-16 -4,-5 -4,22c0,28 2,40 4,28c2,-13 2,-35 0,-50z" id="svg_2"/>
   <path d="m3145,4433c-35,-7 -98,-57 -130,-101c-25,-37 -30,-55 -33,-117c-4,-66 -1,-79 24,-125c32,-60 71,-93 133,-115c110,-38 227,9 284,114c49,90 29,219 -45,288c-54,50 -150,74 -233,56z" id="svg_3"/>
   <path d="m2780,4138c1,-7 22,-49 48,-93l48,-80l97,-3c53,-1 97,-1 97,1c0,2 -21,25 -48,53c-26,27 -53,68 -61,92l-14,42l-84,0c-60,0 -83,-3 -83,-12z" id="svg_4"/>
   <path d="m3465,4104c-10,-26 -37,-67 -61,-92c-24,-25 -44,-47 -44,-49c0,-2 43,-3 95,-3l94,0l51,85c27,47 50,90 50,95c0,6 -36,10 -84,10l-83,0l-18,-46z" id="svg_5"/>
   <path d="m2650,3922c0,-4 80,-145 178,-312c97,-168 215,-371 261,-451c46,-80 92,-157 102,-170c19,-24 19,-24 19,55c0,72 -2,80 -25,98c-44,35 -23,108 32,108c51,0 71,-75 28,-108c-23,-18 -25,-27 -25,-97c0,-43 4,-74 9,-71c5,4 25,34 44,69c32,58 164,285 302,522c130,223 205,355 205,360c0,3 -51,5 -112,5l-113,0l-95,-166c-52,-92 -128,-223 -167,-293c-55,-94 -73,-136 -74,-166l-2,-40l-6,45c-7,48 -8,51 -209,395l-128,220l-112,3c-62,1 -112,-1 -112,-6z" id="svg_6"/>
   <path d="m2900,3926c0,-4 185,-326 276,-480c16,-27 34,-51 39,-52c6,-2 64,92 130,209c66,116 135,237 153,269l33,58l-315,0c-174,0 -316,-2 -316,-4z" id="svg_7"/>
   <path d="m1460,2319c-72,-29 -125,-99 -136,-182c-21,-152 125,-278 274,-236c70,20 137,90 151,160c14,65 -2,140 -40,187c-52,67 -173,101 -249,71z" id="svg_8"/>
   <path d="m4122,2172c-18,-43 -32,-81 -32,-85c0,-4 32,-7 70,-7c53,0 70,3 70,14c0,18 -61,156 -70,156c-3,0 -20,-35 -38,-78z" id="svg_9"/>
   <path d="m2930,2210l0,-112l57,4c48,4 61,10 85,37c21,23 28,42 28,71c0,29 -7,48 -28,71c-24,27 -37,33 -85,37l-57,4l0,-112z" id="svg_10"/>
  </g>
 </g>
</svg>