<?xml version="1.0" standalone="no"?>
<!DOCTYPE svg PUBLIC "-//W3C//DTD SVG 20010904//EN"
 "http://www.w3.org/TR/2001/REC-SVG-20010904/DTD/svg10.dtd">
<svg version="1.0" xmlns="http://www.w3.org/2000/svg"
 width="335.000000pt" height="205.000000pt" viewBox="0 0 335.000000 205.000000"
 preserveAspectRatio="xMidYMid meet">

<g transform="translate(0.000000,205.000000) scale(0.100000,-0.100000)"
fill="#000000" stroke="none">
<path d="M1615 2002 c-38 -7 -40 -9 -45 -47 -5 -37 -7 -40 -45 -47 -77 -13
-93 -10 -112 23 -22 36 -38 35 -139 -11 -70 -31 -71 -34 -48 -93 6 -17 -2 -25
-66 -67 -53 -35 -61 -36 -85 -10 -10 11 -23 20 -29 20 -14 -1 -97 -79 -132
-125 l-26 -34 26 -28 c14 -15 26 -30 26 -33 0 -3 -15 -28 -33 -55 -33 -50 -40
-53 -88 -40 -24 6 -28 2 -52 -54 -35 -80 -44 -131 -24 -131 8 0 24 -8 35 -17
19 -17 20 -23 10 -75 -11 -56 -12 -57 -50 -63 -30 -5 -39 -12 -44 -32 -10 -37
1 -182 14 -195 18 -18 25 -3 10 21 -29 48 49 52 144 9 l53 -25 0 131 c0 146
14 209 72 332 97 209 300 373 518 419 91 19 245 19 336 0 91 -19 215 -78 297
-140 132 -99 236 -256 277 -415 23 -90 30 -236 16 -311 -13 -65 -8 -89 9 -44
31 82 113 141 181 132 l39 -5 0 59 c0 54 -2 59 -25 65 -14 3 -32 3 -40 0 -9
-3 -14 -2 -10 3 3 5 -1 39 -9 75 l-14 67 30 15 c35 18 34 31 -10 129 -44 98
-44 98 -76 84 -25 -12 -29 -10 -56 22 -42 48 -47 75 -21 103 l21 22 -80 80
c-44 43 -84 80 -88 82 -5 1 -17 -7 -27 -18 -24 -26 -37 -25 -86 6 -40 25 -41
27 -35 65 l6 40 -65 30 c-102 46 -119 47 -141 9 -18 -30 -21 -31 -69 -24 -27
3 -53 8 -57 11 -5 2 -8 22 -8 44 0 36 -2 39 -29 39 -15 0 -48 2 -72 4 -24 2
-62 1 -84 -2z"/>
<path d="M1385 1411 c-11 -5 -31 -21 -45 -36 -22 -24 -25 -35 -25 -107 0 -77
1 -80 33 -109 26 -24 41 -29 81 -29 58 0 101 28 101 66 0 32 -16 30 -51 -7
-45 -49 -54 -36 -57 85 -3 107 -3 107 20 104 15 -2 29 -16 41 -40 16 -33 46
-52 48 -30 0 4 2 26 5 49 3 27 0 44 -8 49 -18 11 -119 15 -143 5z"/>
<path d="M1577 1408 c-8 -5 -8 -13 0 -30 15 -33 17 -196 3 -213 -20 -24 -1
-35 60 -35 61 0 80 11 60 35 -6 7 -10 31 -8 51 3 35 4 37 20 21 17 -18 37 -22
39 -9 1 4 2 24 3 45 1 21 8 42 15 46 7 5 15 27 18 50 5 35 3 41 -13 42 -105 4
-188 3 -197 -3z m152 -51 c8 -10 6 -19 -10 -35 -26 -29 -29 -28 -29 13 0 37
18 47 39 22z"/>
<path d="M1825 1270 l0 -141 65 3 c52 2 64 6 61 18 -2 8 -6 30 -9 48 -4 29 -2
32 22 32 39 0 82 26 90 52 12 46 6 79 -19 103 -22 23 -32 25 -117 25 l-93 0 0
-140z m135 50 c0 -22 -4 -40 -10 -40 -5 0 -10 18 -10 40 0 22 5 40 10 40 6 0
10 -18 10 -40z"/>
<path d="M1343 1043 c-18 -19 -33 -42 -33 -51 0 -10 -9 -23 -19 -29 -24 -15
-111 -136 -111 -154 0 -7 25 22 55 66 39 55 55 72 55 57 0 -12 -21 -50 -46
-84 l-46 -63 46 -3 c42 -3 46 -5 46 -30 0 -21 2 -24 10 -12 8 13 10 13 10 1 0
-8 -10 -25 -21 -37 -39 -41 -20 -54 73 -52 l83 2 -79 5 c-77 6 -110 22 -66 34
19 5 20 13 20 149 0 137 1 145 25 181 20 29 32 37 55 37 l30 0 0 -140 c0 -133
1 -140 20 -140 11 0 20 5 20 10 0 6 -7 10 -15 10 -13 0 -15 22 -15 135 0 74
-3 135 -7 136 -5 0 -19 2 -33 3 -18 2 -35 -7 -57 -31z m-33 -201 l0 -48 -35 4
c-20 2 -35 10 -35 17 0 13 53 75 64 75 3 0 6 -22 6 -48z"/>
<path d="M1615 1066 c-138 -60 -142 -334 -7 -403 32 -16 56 -20 90 -17 55 5
87 26 125 82 25 37 28 51 28 119 1 108 -30 180 -90 213 -35 18 -111 22 -146 6z
m55 -9 c0 -7 -9 -20 -20 -30 -18 -15 -20 -29 -20 -167 0 -140 1 -150 22 -170
26 -24 21 -32 -18 -24 -65 13 -105 75 -112 175 -7 104 31 184 103 215 38 17
45 17 45 1z m95 -16 c53 -43 73 -93 74 -180 1 -98 -45 -179 -111 -195 -21 -5
-28 -3 -28 8 0 8 6 16 13 18 9 4 13 47 15 160 3 131 1 157 -12 171 -9 8 -16
23 -16 32 0 19 33 12 65 -14z m-64 -21 c17 -10 19 -23 19 -149 0 -121 -2 -142
-19 -162 -16 -20 -21 -21 -35 -10 -13 11 -16 38 -16 166 0 146 2 158 28 164 2
1 12 -4 23 -9z"/>
<path d="M1923 1059 c-43 -27 -61 -80 -39 -114 19 -29 56 -41 84 -26 25 13 38
66 22 86 -8 9 -8 15 0 20 21 13 40 -17 40 -64 0 -40 -4 -49 -27 -63 -25 -15
-26 -17 -7 -18 34 0 44 20 44 87 0 47 -4 65 -15 69 -18 7 -20 34 -2 34 6 0 29
-5 49 -10 78 -22 104 -108 48 -161 -16 -16 -35 -29 -42 -29 -7 -1 1 -8 17 -17
40 -22 65 -51 65 -78 0 -68 -47 -115 -114 -115 -38 0 -45 10 -21 30 11 9 15
32 15 81 0 57 -3 70 -19 79 -24 12 -31 13 -31 1 0 -5 9 -11 20 -14 17 -4 20
-14 20 -62 0 -55 -10 -77 -38 -83 -9 -1 -11 6 -6 25 l6 28 -21 -25 c-18 -22
-18 -27 -6 -36 40 -30 -4 -33 -51 -3 -41 25 -52 60 -30 94 25 38 74 33 89 -9
4 -10 10 -16 13 -13 11 11 -17 47 -43 53 -40 11 -77 -15 -81 -55 -7 -69 54
-111 153 -106 78 3 111 17 135 57 28 46 26 99 -6 137 l-25 30 23 31 c35 48 30
105 -14 145 -31 29 -41 32 -104 34 -55 1 -76 -3 -101 -20z m46 -25 c-9 -11 -9
-18 -2 -22 23 -15 24 -51 4 -71 -25 -25 -44 -26 -65 -5 -34 33 -8 103 46 123
27 10 36 -3 17 -25z"/>
<path d="M2543 970 c-22 -13 -31 -25 -27 -35 4 -8 1 -15 -5 -15 -6 0 -11 6
-11 13 0 6 -16 -15 -35 -48 -19 -33 -39 -59 -45 -58 -5 2 -7 -3 -4 -10 6 -18
-72 -202 -86 -202 -6 0 -17 -10 -23 -21 -7 -12 -34 -47 -62 -78 -43 -49 -83
-122 -71 -133 8 -8 135 169 141 197 4 17 11 28 16 25 5 -4 3 -21 -5 -40 -17
-40 -145 -201 -157 -198 -5 2 -6 -3 -4 -10 5 -14 -22 -53 -31 -44 -4 3 23 85
60 182 48 128 68 196 73 247 4 43 2 69 -3 67 -6 -2 -29 -25 -52 -50 -33 -37
-51 -72 -86 -170 -25 -68 -66 -182 -93 -254 -97 -260 -59 -281 228 -124 147
80 167 86 242 73 51 -9 117 21 117 53 0 12 8 24 19 28 27 8 44 32 38 50 -5 12
-10 13 -40 0 -47 -19 -54 -7 -15 26 46 38 28 55 -30 29 -33 -15 -48 -17 -63
-9 -30 16 -88 -17 -112 -64 -21 -41 -42 -58 -137 -109 -36 -20 -85 -47 -110
-62 -57 -33 -70 -33 -40 -1 14 14 25 37 25 50 1 16 35 59 106 132 85 88 122
118 198 161 52 29 96 51 98 49 1 -2 -38 -28 -89 -58 -53 -31 -126 -86 -170
-128 -67 -63 -76 -76 -66 -90 11 -14 11 -14 -3 -4 -13 11 -19 9 -35 -8 -10
-11 -19 -30 -19 -43 -1 -12 -5 -28 -10 -35 -8 -13 67 25 170 86 28 16 55 40
61 52 7 12 17 28 23 34 6 6 11 18 11 26 0 9 14 38 31 64 26 42 34 48 54 43 20
-5 27 -1 40 25 9 17 14 33 11 37 -3 3 18 21 47 40 103 68 138 114 139 182 1
51 -29 100 -78 127 -48 28 -89 29 -131 3z m74 -6 c-16 -9 -26 -18 -23 -22 4
-3 12 0 18 6 15 15 62 16 53 1 -4 -6 -13 -8 -21 -5 -8 3 -13 1 -11 -3 1 -5
-11 -24 -28 -42 -37 -42 -85 -107 -85 -115 0 -4 9 5 21 20 11 14 26 23 32 19
7 -3 9 -2 4 2 -9 11 23 46 35 39 11 -7 38 14 38 29 0 5 -9 2 -20 -8 -11 -10
-20 -13 -20 -7 0 14 58 62 76 62 19 0 10 -34 -17 -68 -55 -71 -190 -203 -200
-196 -7 4 -9 3 -5 -4 3 -6 3 -13 -2 -16 -4 -2 -8 4 -9 14 -1 11 2 22 8 25 5 4
9 1 9 -6 0 -7 8 -5 20 6 11 10 20 23 20 28 0 6 -8 3 -17 -5 -10 -9 -26 -14
-36 -13 -9 2 -15 0 -12 -5 3 -4 -5 -21 -17 -36 -13 -16 -15 -23 -6 -16 9 7 19
9 22 4 2 -4 -17 -33 -44 -63 -50 -54 -71 -56 -25 -1 13 16 22 32 19 35 -10 10
44 104 60 104 9 0 16 -5 16 -11 0 -6 11 3 25 19 14 17 22 22 19 13 -7 -22 9
-24 25 -4 10 11 8 17 -6 25 -14 8 -23 4 -41 -17 -16 -18 -22 -21 -18 -9 4 12
2 16 -5 11 -7 -4 -10 -1 -7 7 3 8 10 13 16 12 10 -2 92 99 92 113 0 13 -42
-31 -57 -59 -8 -16 -17 -27 -20 -24 -2 3 0 15 7 26 6 12 9 21 6 21 -2 0 -19
-25 -36 -56 -34 -59 -53 -69 -24 -12 28 55 76 121 114 156 23 22 28 30 15 26
-11 -4 -26 -12 -33 -17 -7 -5 -15 -7 -18 -4 -11 10 51 36 86 36 l35 0 -28 -15z
m-157 -130 c-22 -43 -38 -85 -35 -91 7 -19 -5 -44 -18 -36 -6 3 -7 1 -3 -5 7
-12 -33 -92 -46 -92 -4 0 11 44 33 98 44 104 100 215 106 209 2 -2 -15 -40
-37 -83z m280 -3 c0 -62 -47 -111 -175 -187 -44 -26 -95 -56 -112 -66 -50 -30
-39 -13 22 33 30 22 59 38 65 34 6 -4 9 -1 8 7 -2 7 4 12 13 10 9 -1 24 8 35
20 10 12 13 18 7 14 -7 -4 -13 -3 -13 1 0 13 -39 13 -46 1 -4 -7 -2 -8 4 -4 7
4 20 2 29 -4 11 -7 13 -10 3 -7 -14 3 -56 -21 -114 -66 -69 -54 -53 -32 62 85
68 69 138 146 154 172 l31 46 13 -26 c8 -14 14 -43 14 -63z m-490 -101 c0 -42
-16 -52 -50 -30 -12 8 -10 14 15 40 16 16 30 30 32 30 2 0 3 -18 3 -40z m-60
-50 c0 -5 7 -7 15 -4 8 4 15 5 15 3 0 -2 -16 -48 -35 -103 -20 -54 -34 -101
-31 -103 2 -2 14 26 27 64 28 86 49 136 54 131 2 -2 -16 -62 -41 -133 -25 -72
-52 -151 -61 -177 -8 -25 -21 -45 -27 -42 -6 2 -19 -10 -29 -27 -21 -38 -32
-33 -16 7 37 95 128 358 125 361 -4 4 -11 -16 -110 -292 -30 -82 -59 -151 -64
-153 -6 -2 8 46 29 105 43 117 129 364 129 369 0 2 5 4 10 4 6 0 10 -4 10 -10z
m440 -219 c0 -5 -13 -14 -30 -21 -25 -10 -28 -15 -19 -31 5 -11 7 -25 3 -32
-6 -9 -4 -9 7 -1 8 5 27 16 44 23 29 13 29 12 12 -7 -10 -11 -30 -23 -45 -27
-17 -4 -22 -9 -14 -14 10 -6 9 -13 -5 -29 -19 -24 -39 -27 -118 -19 l-50 5 3
39 c4 49 50 100 93 101 16 0 29 -3 29 -8 0 -4 17 1 37 11 41 21 53 23 53 10z
m-233 -148 c2 -5 -25 -25 -59 -43 -35 -18 -109 -57 -165 -87 -64 -34 -103 -50
-103 -41 1 17 207 131 222 122 7 -4 8 -3 4 5 -4 6 0 14 11 18 10 3 29 15 42
25 25 19 42 20 48 1z"/>
<path d="M2541 903 c-17 -21 -31 -42 -31 -47 0 -6 3 -6 8 0 4 5 23 26 41 47
19 20 30 37 24 37 -6 0 -25 -17 -42 -37z"/>
<path d="M2591 919 c-12 -12 -20 -24 -16 -27 3 -3 18 6 33 21 31 32 16 37 -17
6z"/>
<path d="M2551 796 c-11 -13 -11 -20 -3 -28 8 -8 13 -7 18 5 10 27 0 41 -15
23z"/>
<path d="M2710 852 c0 -16 -101 -123 -111 -116 -5 3 -17 0 -26 -5 -10 -6 -16
-11 -13 -11 39 -9 49 -6 83 28 44 42 82 100 73 109 -3 4 -6 1 -6 -5z"/>
<path d="M2121 402 c-29 -81 -25 -92 5 -13 14 35 23 65 21 68 -2 2 -14 -23
-26 -55z"/>
<path d="M2520 366 c0 -2 7 -7 16 -10 8 -3 12 -2 9 4 -6 10 -25 14 -25 6z"/>
<path d="M730 930 c-12 -9 -9 -16 23 -46 35 -32 39 -42 42 -94 3 -48 1 -59
-13 -65 -15 -6 -13 -8 7 -16 18 -7 27 -6 32 3 11 17 3 76 -12 94 -6 8 -9 17
-7 20 3 3 15 -8 26 -24 17 -23 19 -35 12 -66 -4 -21 -10 -40 -13 -42 -3 -3
-23 0 -45 5 -41 11 -74 42 -122 114 -29 43 -36 45 -43 15 -7 -29 -1 -76 19
-159 30 -126 68 -160 200 -180 l84 -12 70 -98 c38 -54 70 -100 70 -103 0 -9
-30 1 -47 16 -10 9 -58 36 -107 59 -74 36 -91 41 -107 31 -16 -10 -27 -9 -59
8 -40 20 -80 28 -47 9 16 -10 15 -14 -22 -55 -23 -24 -41 -46 -41 -49 0 -3 17
12 38 34 l38 40 37 -17 c20 -9 36 -20 37 -24 0 -4 -13 -23 -30 -41 -16 -19
-30 -43 -30 -53 1 -17 2 -17 13 2 7 12 27 38 46 59 l33 38 57 -18 c143 -47
194 -93 172 -156 -11 -33 2 -40 19 -9 16 30 33 25 26 -7 l-6 -28 15 25 c8 14
14 19 15 12 0 -8 5 -10 12 -6 8 5 9 2 5 -10 -4 -10 -7 -21 -7 -24 0 -4 -5 0
-10 8 -6 9 -10 10 -10 3 0 -22 19 -24 32 -3 17 27 30 25 68 -10 46 -43 100
-55 145 -34 23 11 37 25 41 43 3 14 7 31 8 36 2 6 -2 26 -9 45 -7 19 -11 49
-10 65 1 17 0 22 -2 13 -6 -24 -10 -23 -41 14 -46 54 -58 76 -25 45 16 -15 33
-24 37 -20 4 4 4 0 0 -10 -3 -9 -2 -17 4 -17 5 0 12 7 16 15 4 10 -5 22 -27
35 -31 19 -35 21 -57 24 -6 0 -40 28 -76 61 -36 33 -88 81 -116 106 l-51 46
-1 89 c-1 75 -5 96 -25 132 -29 50 -47 62 -153 108 -85 36 -104 40 -128 24z
m93 -30 c46 -14 135 -69 161 -100 28 -34 41 -94 31 -156 -5 -35 -12 -47 -34
-59 -15 -7 -42 -30 -60 -50 -31 -36 -33 -37 -84 -30 -63 9 -118 35 -145 70
-21 27 -52 143 -52 192 l1 28 22 -30 c49 -66 63 -77 118 -90 31 -7 62 -9 68
-5 7 4 14 34 17 67 6 57 4 61 -28 95 -81 87 -85 92 -63 84 11 -5 32 -12 48
-16z m205 -350 c13 -11 21 -24 17 -30 -3 -5 0 -7 8 -5 30 12 259 -215 304
-301 38 -72 23 -120 -40 -131 -31 -5 -43 -1 -79 27 -24 18 -59 53 -78 78 -58
75 -114 149 -130 172 -8 12 -34 47 -56 78 -44 59 -45 71 -11 110 25 27 35 27
65 2z m80 -331 c43 -66 29 -63 -39 6 -34 34 -35 40 -11 42 10 0 30 -19 50 -48z"/>
<path d="M972 537 c-12 -13 -22 -27 -22 -31 0 -7 57 -87 122 -170 34 -44 60
-66 70 -60 5 3 -16 33 -45 67 -96 112 -136 177 -109 177 5 0 42 -36 82 -81 40
-44 98 -106 127 -136 50 -51 53 -56 36 -69 -25 -19 -28 -18 -57 17 -21 25 -27
28 -32 15 -3 -9 -11 -13 -17 -9 -21 13 35 -58 84 -106 27 -27 61 -51 76 -54
28 -5 72 7 74 20 0 5 2 17 4 27 2 11 1 25 -3 30 -3 6 -7 17 -8 24 -1 7 -15 30
-30 50 -34 46 -245 254 -252 248 -2 -3 45 -57 104 -121 60 -63 109 -121 109
-128 0 -7 -17 -28 -38 -46 l-38 -34 -25 24 c-14 13 -30 33 -36 44 -6 12 4 6
26 -14 l36 -35 32 30 c18 16 34 30 36 30 2 1 -19 23 -47 49 -28 26 -51 51 -51
54 0 4 -34 42 -75 86 -41 43 -75 86 -75 94 0 8 -3 11 -7 8 -3 -4 -11 0 -17 9
-10 13 -14 12 -34 -9z m363 -357 c15 -17 16 -24 6 -46 -6 -15 -14 -24 -17 -21
-3 3 0 14 8 26 11 18 10 23 -5 38 -13 14 -21 15 -35 7 -26 -17 -28 -54 -3 -61
12 -3 21 -9 21 -14 0 -5 -10 -5 -22 0 -42 15 -32 91 12 91 9 0 25 -9 35 -20z
m-16 -14 c9 -10 8 -16 -4 -26 -20 -16 -38 -1 -29 23 8 21 18 22 33 3z"/>
<path d="M1297 163 c-4 -3 -7 -11 -7 -17 0 -6 5 -5 12 2 6 6 9 14 7 17 -3 3
-9 2 -12 -2z"/>
<path d="M998 495 c15 -29 100 -144 126 -170 11 -12 33 -36 49 -53 27 -32 47
-41 47 -22 0 8 -55 75 -105 125 -11 12 -44 48 -74 80 -30 33 -49 51 -43 40z"/>
<path d="M1140 847 c0 -4 7 -21 15 -38 9 -16 13 -35 9 -42 -5 -9 -4 -9 5 -1
10 9 8 20 -8 50 -11 22 -20 35 -21 31z"/>
<path d="M1481 773 c-1 -17 -7 -23 -24 -23 -13 0 -26 -2 -29 -5 -10 -10 4 -55
17 -55 8 0 16 -10 18 -22 4 -20 4 -20 6 4 0 14 -4 28 -11 30 -20 7 -18 38 3
38 21 0 34 21 26 42 -3 7 -6 3 -6 -9z"/>
<path d="M1180 753 c0 -7 17 -47 37 -90 20 -43 37 -84 36 -90 0 -7 4 -10 10
-6 7 4 8 0 3 -13 -5 -14 -4 -16 4 -8 7 7 -4 40 -39 115 -28 57 -50 99 -51 92z"/>
<path d="M1228 743 c12 -2 30 -2 40 0 9 3 -1 5 -23 4 -22 0 -30 -2 -17 -4z"/>
<path d="M1196 537 c3 -10 9 -15 12 -12 3 3 0 11 -7 18 -10 9 -11 8 -5 -6z"/>
<path d="M1276 533 c-3 -3 -6 -11 -6 -17 0 -6 5 -4 11 4 9 12 10 11 6 -6 -2
-12 1 -21 8 -21 7 0 10 8 7 19 -5 21 -16 30 -26 21z"/>
<path d="M1304 463 c-8 -14 -7 -22 8 -37 25 -26 35 -12 17 24 -13 27 -15 29
-25 13z"/>
<path d="M1350 430 c6 -11 13 -20 16 -20 2 0 0 9 -6 20 -6 11 -13 20 -16 20
-2 0 0 -9 6 -20z"/>
<path d="M945 380 c-6 -10 41 -60 57 -60 10 0 -34 70 -44 70 -4 0 -10 -4 -13
-10z"/>
<path d="M621 337 c-13 -21 -12 -21 5 -5 10 10 16 20 13 22 -3 3 -11 -5 -18
-17z"/>
<path d="M1965 320 c-91 -43 -155 -55 -290 -54 -119 1 -197 12 -271 41 -15 6
-16 0 -10 -53 13 -105 14 -139 3 -152 -21 -27 6 -26 29 1 23 27 27 28 77 20
48 -8 53 -11 63 -43 l12 -35 68 -3 c38 -2 88 0 112 3 38 6 42 9 42 35 0 33 13
40 92 47 50 4 57 3 63 -16 4 -13 15 -21 27 -21 20 0 20 1 5 18 -24 26 -21 81
8 158 14 36 25 68 25 70 0 7 -15 3 -55 -16z"/>
<path d="M680 270 c8 -5 20 -10 25 -10 6 0 3 5 -5 10 -8 5 -19 10 -25 10 -5 0
-3 -5 5 -10z"/>
<path d="M880 273 c0 -5 7 -18 15 -29 13 -18 14 -18 8 4 -5 22 -23 41 -23 25z"/>
<path d="M838 193 c-4 -14 2 -18 26 -20 44 -3 76 5 76 19 0 9 -3 9 -12 0 -16
-16 -52 -16 -42 0 4 6 3 8 -4 4 -6 -3 -13 -2 -17 4 -9 15 -22 12 -27 -7z"/>
<path d="M797 189 c7 -7 15 -10 18 -7 3 3 -2 9 -12 12 -14 6 -15 5 -6 -5z"/>
<path d="M956 185 c4 -8 10 -15 15 -15 4 0 6 7 3 15 -4 8 -10 15 -15 15 -4 0
-6 -7 -3 -15z"/>
</g>
</svg>
