<?xml version="1.0" standalone="no"?>
<!DOCTYPE svg PUBLIC "-//W3C//DTD SVG 20010904//EN"
 "http://www.w3.org/TR/2001/REC-SVG-20010904/DTD/svg10.dtd">
<svg version="1.0" xmlns="http://www.w3.org/2000/svg"
 width="335.000000pt" height="335.000000pt" viewBox="0 0 335.000000 335.000000"
 preserveAspectRatio="xMidYMid meet">

<g transform="translate(0.000000,335.000000) scale(0.100000,-0.100000)"
fill="#000000" stroke="none">
<path d="M1615 3302 c-38 -7 -40 -9 -45 -47 -5 -37 -7 -40 -45 -47 -77 -13
-93 -10 -112 23 -22 36 -38 35 -139 -11 -70 -31 -71 -34 -48 -93 6 -17 -2 -25
-66 -67 -53 -35 -61 -36 -85 -10 -10 11 -23 20 -29 20 -14 -1 -97 -79 -132
-125 l-26 -34 26 -28 c14 -15 26 -30 26 -33 0 -3 -15 -28 -33 -55 -33 -50 -40
-53 -88 -40 -24 6 -28 2 -52 -54 -35 -80 -44 -131 -24 -131 8 0 24 -8 35 -17
19 -17 20 -23 10 -75 -11 -54 -12 -57 -47 -63 -20 -4 -39 -12 -43 -18 -9 -15
-10 -128 -2 -179 4 -23 12 -38 20 -38 17 0 17 5 1 30 -28 47 51 51 145 8 l53
-25 0 131 c0 146 14 209 72 332 97 209 300 373 518 419 91 19 245 19 336 0 91
-19 215 -78 297 -140 132 -99 236 -256 277 -415 23 -90 30 -236 16 -311 -13
-63 -8 -89 8 -48 33 86 113 145 182 136 l39 -5 0 59 c0 54 -2 59 -25 65 -14 3
-32 3 -40 0 -9 -3 -14 -2 -10 3 3 5 -1 39 -9 75 l-14 67 30 15 c35 18 34 31
-10 129 -44 98 -44 98 -76 84 -25 -12 -29 -10 -56 22 -42 48 -47 75 -21 103
l21 22 -80 80 c-44 43 -84 80 -88 82 -5 1 -17 -7 -27 -18 -24 -26 -37 -25 -86
6 -40 25 -41 27 -35 65 l6 40 -65 30 c-102 46 -119 47 -141 9 -18 -30 -21 -31
-69 -24 -27 3 -53 8 -57 11 -5 2 -8 22 -8 44 0 36 -2 39 -29 39 -15 0 -48 2
-72 4 -24 2 -62 1 -84 -2z"/>
<path d="M1385 2711 c-11 -5 -31 -21 -45 -36 -22 -24 -25 -35 -25 -107 0 -77
1 -80 33 -109 26 -24 41 -29 81 -29 58 0 101 28 101 66 0 32 -16 30 -51 -7
-45 -49 -54 -36 -57 85 -3 106 -2 107 19 104 14 -2 30 -18 42 -40 17 -33 46
-52 48 -30 0 4 2 26 5 49 3 27 0 44 -8 49 -18 11 -119 15 -143 5z"/>
<path d="M1577 2708 c-8 -5 -8 -13 0 -30 15 -33 17 -196 3 -213 -20 -24 -1
-35 60 -35 61 0 80 11 60 35 -6 7 -10 31 -8 51 3 35 4 37 20 21 17 -18 37 -22
39 -9 0 4 2 24 3 45 1 21 7 42 15 46 7 5 15 27 18 50 5 35 3 41 -13 42 -105 4
-188 3 -197 -3z m152 -51 c8 -10 6 -19 -10 -35 -26 -29 -29 -28 -29 13 0 37
18 47 39 22z"/>
<path d="M1825 2570 l0 -141 65 3 c52 2 64 6 61 18 -2 8 -6 30 -9 48 -4 29 -2
32 22 32 39 0 82 26 90 52 12 46 6 79 -19 103 -22 23 -32 25 -117 25 l-93 0 0
-140z m135 50 c0 -22 -4 -40 -10 -40 -5 0 -10 18 -10 40 0 22 5 40 10 40 6 0
10 -18 10 -40z"/>
<path d="M1343 2343 c-18 -19 -33 -42 -33 -51 0 -10 -9 -23 -19 -29 -24 -15
-116 -142 -108 -149 3 -3 28 27 56 67 33 47 51 65 51 52 0 -11 -18 -45 -40
-76 -22 -30 -40 -60 -40 -66 0 -6 18 -11 40 -11 37 0 40 -2 40 -27 0 -22 2
-25 10 -13 8 13 10 13 10 1 0 -8 -10 -25 -21 -37 -39 -41 -20 -54 73 -52 l83
2 -79 5 c-77 6 -110 22 -66 34 19 5 20 13 20 149 0 137 1 145 25 181 20 29 32
37 56 37 l30 0 -2 -137 c-1 -133 -1 -138 20 -141 11 -2 21 1 21 7 0 6 -7 11
-15 11 -13 0 -15 22 -15 135 0 74 -3 135 -7 136 -5 0 -19 2 -33 3 -18 2 -35
-7 -57 -31z m-33 -201 l0 -48 -35 4 c-20 2 -35 10 -35 17 0 13 53 75 64 75 3
0 6 -22 6 -48z"/>
<path d="M1615 2366 c-138 -60 -142 -334 -7 -403 32 -16 56 -20 90 -17 54 5
86 25 125 80 25 36 28 49 28 120 1 109 -29 181 -90 214 -35 18 -111 22 -146 6z
m55 -9 c0 -7 -9 -20 -20 -30 -18 -15 -20 -29 -20 -167 0 -138 2 -152 20 -167
42 -36 18 -43 -45 -13 -52 25 -76 72 -83 161 -7 103 31 184 103 215 38 17 45
17 45 1z m95 -16 c53 -43 73 -93 74 -180 1 -98 -45 -179 -111 -195 -21 -5 -28
-3 -28 8 0 8 6 16 13 18 9 4 13 47 15 160 3 131 1 157 -12 171 -9 8 -16 23
-16 32 0 19 33 12 65 -14z m-45 -172 c0 -119 -2 -140 -19 -160 -16 -20 -21
-21 -35 -10 -24 20 -24 308 1 326 13 10 20 9 35 -4 16 -14 18 -32 18 -152z"/>
<path d="M1923 2359 c-43 -27 -61 -80 -39 -114 19 -29 56 -41 84 -26 25 13 38
66 22 86 -8 9 -8 15 0 20 21 13 40 -17 40 -64 0 -40 -4 -49 -27 -63 -25 -15
-26 -17 -7 -18 34 0 44 20 44 87 0 47 -4 65 -15 69 -18 7 -20 34 -2 34 68 0
127 -51 127 -110 0 -33 -45 -90 -72 -90 -7 -1 1 -8 17 -17 52 -28 68 -53 62
-98 -7 -53 -55 -95 -109 -95 -40 0 -48 10 -23 30 11 9 15 32 15 81 0 57 -3 70
-19 79 -24 12 -31 13 -31 1 0 -5 9 -11 20 -14 17 -4 20 -14 20 -62 0 -55 -10
-77 -38 -83 -9 -1 -11 6 -6 25 l6 28 -21 -25 c-18 -22 -18 -27 -6 -36 40 -30
-4 -33 -51 -3 -41 25 -52 60 -30 94 25 38 74 33 89 -9 4 -10 10 -16 14 -13 3
4 -2 18 -11 32 -33 50 -116 22 -116 -38 0 -69 59 -107 155 -102 78 3 111 17
135 57 28 46 26 99 -6 137 l-25 30 23 31 c35 48 30 105 -14 145 -31 29 -41 32
-104 34 -55 1 -76 -3 -101 -20z m46 -25 c-9 -11 -9 -18 -2 -22 23 -15 24 -51
4 -71 -25 -25 -44 -26 -65 -5 -34 33 -8 103 46 123 27 10 36 -3 17 -25z"/>
<path d="M2543 2270 c-22 -13 -31 -25 -27 -35 4 -8 1 -15 -5 -15 -6 0 -11 6
-11 13 0 6 -16 -15 -35 -48 -19 -33 -39 -59 -45 -58 -5 2 -7 -3 -4 -10 6 -18
-72 -202 -86 -202 -6 0 -17 -10 -23 -21 -7 -12 -34 -47 -62 -78 -43 -49 -83
-122 -71 -133 8 -8 135 169 141 197 4 17 11 28 16 25 5 -4 3 -21 -5 -40 -17
-40 -145 -201 -157 -198 -5 2 -6 -3 -4 -10 5 -14 -22 -53 -31 -44 -4 3 24 86
61 184 49 131 68 196 72 247 4 42 2 67 -3 65 -6 -2 -29 -25 -52 -50 -33 -37
-51 -72 -86 -170 -25 -68 -66 -182 -93 -254 -97 -260 -59 -281 228 -124 147
80 167 86 242 73 51 -9 117 21 117 53 0 12 8 24 19 28 27 8 44 32 38 50 -5 12
-10 13 -40 0 -47 -19 -54 -7 -15 26 46 38 28 55 -30 29 -33 -15 -48 -17 -63
-9 -30 16 -88 -17 -112 -64 -21 -41 -42 -58 -137 -109 -36 -20 -85 -47 -110
-62 -57 -33 -70 -33 -40 -1 14 14 25 37 25 50 1 17 35 59 107 132 84 87 123
118 198 161 51 29 95 51 97 49 1 -2 -38 -28 -89 -58 -53 -31 -126 -86 -170
-128 -67 -63 -76 -76 -66 -90 11 -14 11 -14 -3 -4 -13 11 -19 9 -35 -8 -10
-11 -19 -30 -19 -43 -1 -12 -5 -28 -10 -35 -8 -13 67 25 170 86 28 16 55 40
61 52 7 12 17 28 23 34 6 6 11 18 11 26 0 9 14 38 31 64 26 42 34 48 54 43 20
-5 27 -1 40 25 9 17 14 33 11 37 -3 3 18 21 47 40 103 68 138 114 139 182 1
51 -29 100 -78 127 -48 28 -89 29 -131 3z m74 -6 c-16 -9 -26 -18 -23 -22 4
-3 12 0 18 6 15 15 62 16 53 1 -4 -6 -13 -8 -21 -5 -8 3 -13 1 -11 -4 1 -5
-12 -24 -29 -42 -16 -18 -52 -63 -78 -100 -47 -66 -64 -84 -52 -52 4 9 2 13
-5 8 -7 -4 -10 -1 -7 7 3 8 10 13 16 12 10 -2 92 99 92 113 0 13 -42 -31 -57
-59 -8 -16 -17 -27 -20 -24 -2 3 0 15 7 26 6 12 9 21 6 21 -2 0 -19 -25 -36
-56 -34 -59 -53 -69 -24 -12 28 55 76 121 114 156 23 22 28 30 15 26 -11 -4
-26 -12 -33 -17 -7 -5 -15 -7 -18 -4 -11 10 51 36 86 36 l35 0 -28 -15z m77
-46 c-9 -30 -27 -53 -129 -160 -47 -50 -88 -88 -91 -85 -3 3 4 14 15 24 12 9
21 22 21 27 0 5 -8 2 -17 -6 -10 -9 -26 -14 -36 -13 -9 2 -15 0 -12 -5 3 -4
-5 -21 -17 -36 -13 -16 -15 -23 -6 -16 9 7 19 9 22 4 2 -4 -17 -33 -44 -63
-50 -54 -71 -56 -25 -1 13 16 22 32 19 35 -3 3 9 33 27 67 30 57 33 60 44 40
11 -20 14 -18 52 37 22 32 46 57 52 55 7 -1 10 1 7 6 -8 13 87 112 108 112 13
0 16 -5 10 -22z m-234 -84 c-22 -43 -38 -85 -35 -91 7 -19 -5 -44 -18 -36 -6
3 -7 1 -3 -5 7 -12 -33 -92 -46 -92 -4 0 11 44 33 98 44 104 100 215 106 209
2 -2 -15 -40 -37 -83z m268 59 c40 -88 -3 -155 -163 -249 -44 -26 -95 -56
-112 -66 -50 -30 -39 -13 22 33 30 22 59 38 65 34 6 -4 9 -1 8 7 -2 7 4 12 13
10 9 -1 24 8 35 20 10 12 13 18 7 14 -7 -4 -13 -3 -13 1 0 13 -39 13 -46 1 -4
-7 -2 -8 4 -4 7 4 12 3 12 -3 0 -6 8 -8 18 -4 9 3 14 3 10 -1 -3 -4 -12 -9
-20 -10 -21 -3 -79 -36 -102 -58 -12 -11 -30 -24 -41 -30 -11 -6 35 45 102
113 117 118 173 186 173 208 0 20 15 11 28 -16z m-478 -163 c0 -42 -16 -52
-50 -30 -12 8 -10 14 15 40 16 16 30 30 32 30 2 0 3 -18 3 -40z m216 -52 c-3
-13 -5 -24 -5 -26 -1 -2 -6 0 -11 3 -7 4 -7 13 0 26 14 25 21 24 16 -3z m-276
2 c0 -5 7 -7 15 -4 8 4 15 5 15 3 0 -2 -16 -48 -35 -103 -20 -54 -34 -101 -31
-103 2 -2 14 26 27 64 28 86 49 136 54 131 2 -2 -14 -55 -36 -118 -22 -63 -49
-143 -61 -177 -12 -35 -25 -60 -32 -57 -6 2 -19 -10 -29 -27 -21 -38 -32 -33
-16 7 37 95 128 358 125 361 -4 4 -11 -16 -110 -292 -30 -82 -59 -151 -64
-153 -6 -2 8 46 29 105 43 117 129 364 129 369 0 2 5 4 10 4 6 0 10 -4 10 -10z
m440 -219 c0 -5 -13 -14 -30 -21 -25 -10 -28 -15 -19 -31 5 -11 7 -25 3 -32
-6 -9 -4 -9 7 -1 8 5 27 16 44 23 29 13 29 12 12 -7 -10 -11 -30 -23 -45 -27
-16 -4 -22 -9 -14 -14 9 -5 8 -13 -4 -30 -15 -21 -22 -22 -93 -18 l-76 5 3 38
c2 27 13 49 35 72 35 36 46 40 48 15 1 -17 2 -17 6 0 5 17 33 25 33 8 0 -5 17
0 37 10 41 21 53 23 53 10z m-233 -147 c4 -11 -9 -19 -189 -113 -81 -42 -138
-66 -138 -59 1 17 207 131 222 122 7 -4 8 -3 4 5 -4 6 0 14 11 18 10 3 29 15
42 25 25 19 42 20 48 2z"/>
<path d="M2541 2203 c-17 -21 -31 -42 -31 -47 0 -6 3 -6 8 0 4 5 23 26 41 47
19 20 30 37 24 37 -6 0 -25 -17 -42 -37z"/>
<path d="M2591 2219 c-12 -12 -20 -24 -16 -27 3 -3 18 6 33 21 31 32 16 37
-17 6z"/>
<path d="M2625 2180 c-10 -11 -13 -20 -8 -20 13 0 38 29 31 35 -3 3 -13 -4
-23 -15z"/>
<path d="M2552 2097 c-8 -9 -10 -22 -6 -28 4 -7 3 -9 -3 -6 -13 8 -39 -20 -29
-30 11 -11 58 43 54 62 -3 17 -4 17 -16 2z"/>
<path d="M2697 2133 c-18 -33 -82 -97 -100 -99 -35 -3 -40 -5 -33 -11 17 -18
44 -9 79 25 42 41 82 100 74 108 -3 3 -12 -7 -20 -23z"/>
<path d="M2121 1702 c-29 -81 -25 -92 5 -13 14 35 23 65 21 68 -2 2 -14 -23
-26 -55z"/>
<path d="M2520 1666 c0 -2 7 -7 16 -10 8 -3 12 -2 9 4 -6 10 -25 14 -25 6z"/>
<path d="M730 2230 c-12 -9 -8 -17 25 -49 36 -34 40 -43 42 -93 3 -45 0 -57
-15 -63 -15 -6 -14 -8 7 -16 18 -7 27 -6 32 3 11 17 3 76 -12 94 -6 8 -9 17
-7 20 3 3 15 -8 26 -24 17 -23 19 -35 12 -66 -4 -21 -10 -40 -13 -42 -3 -3
-23 0 -46 6 -39 10 -74 45 -136 133 -34 49 -40 -39 -11 -155 35 -139 66 -169
202 -189 l84 -12 70 -98 c38 -54 70 -100 70 -103 0 -9 -30 1 -47 16 -10 9 -58
36 -107 59 -74 36 -91 41 -107 31 -16 -10 -27 -9 -59 8 -40 20 -80 28 -47 9
16 -10 15 -14 -22 -55 -23 -24 -41 -46 -41 -49 0 -3 17 12 38 34 l38 40 37
-17 c20 -9 36 -20 37 -24 0 -4 -13 -23 -30 -41 -16 -19 -30 -43 -30 -53 1 -17
2 -17 13 2 7 12 27 38 46 59 l33 38 57 -18 c143 -47 194 -93 172 -156 -11 -33
2 -40 19 -9 16 30 33 25 26 -7 l-6 -28 15 25 c8 14 14 19 15 12 0 -8 5 -10 12
-6 8 5 9 2 5 -10 -4 -10 -7 -21 -7 -24 0 -4 -5 0 -10 8 -6 9 -10 10 -10 3 0
-22 19 -24 32 -3 17 27 30 25 68 -10 46 -43 100 -55 145 -34 23 11 37 25 41
43 3 14 7 31 8 36 2 6 -2 26 -9 45 -7 19 -11 49 -10 65 1 17 0 22 -2 13 -6
-24 -10 -23 -41 14 -46 54 -58 76 -25 45 16 -15 33 -24 37 -20 4 4 4 0 0 -10
-3 -9 -2 -17 4 -17 5 0 12 7 16 15 4 10 -5 22 -27 35 -31 19 -35 21 -57 24 -6
0 -40 28 -76 61 -36 33 -88 81 -116 106 l-51 46 -1 89 c-1 75 -5 96 -25 132
-29 50 -47 62 -153 108 -85 36 -104 40 -128 24z m93 -30 c46 -14 135 -69 161
-100 28 -34 41 -94 31 -156 -5 -35 -12 -47 -34 -59 -15 -7 -42 -30 -60 -50
-31 -36 -33 -37 -84 -30 -63 9 -118 35 -145 70 -21 27 -52 143 -52 192 l1 28
22 -30 c49 -66 63 -77 118 -90 31 -7 62 -9 68 -5 7 4 14 34 17 67 6 57 4 61
-28 95 -81 87 -85 92 -63 84 11 -5 32 -12 48 -16z m205 -350 c13 -11 21 -24
17 -30 -3 -5 0 -7 8 -5 30 12 259 -215 304 -301 38 -72 23 -120 -40 -131 -31
-5 -43 -1 -79 27 -24 18 -59 53 -78 78 -58 75 -114 149 -130 172 -8 12 -34 47
-56 78 -45 61 -46 81 -6 112 30 24 31 24 60 0z m80 -331 c43 -66 29 -63 -39 6
-34 34 -35 40 -11 42 10 0 30 -19 50 -48z"/>
<path d="M972 1837 c-12 -13 -22 -27 -22 -31 0 -7 57 -87 122 -170 34 -44 60
-66 70 -60 5 3 -16 33 -45 67 -96 112 -136 177 -109 177 5 0 42 -36 82 -81 40
-44 98 -106 127 -136 50 -51 53 -56 36 -69 -25 -19 -28 -18 -57 17 -21 25 -27
28 -32 15 -3 -9 -11 -13 -17 -9 -21 13 35 -58 84 -106 27 -27 61 -51 76 -54
28 -5 72 7 74 20 0 5 2 17 4 27 2 11 1 25 -3 30 -3 6 -7 17 -8 24 -1 7 -15 30
-30 50 -34 46 -245 254 -252 248 -2 -3 45 -57 104 -121 60 -63 109 -121 109
-128 0 -7 -17 -28 -38 -46 l-38 -34 -25 24 c-14 13 -30 33 -36 44 -6 12 4 6
26 -14 l36 -35 32 30 c18 16 34 30 36 30 2 1 -19 23 -47 49 -28 26 -51 51 -51
54 0 4 -34 42 -75 86 -41 43 -75 86 -75 94 0 8 -3 11 -7 8 -3 -4 -11 0 -17 9
-10 13 -14 12 -34 -9z m363 -357 c15 -17 16 -24 6 -46 -6 -15 -14 -24 -17 -21
-3 3 0 14 8 26 11 18 10 23 -5 38 -13 14 -21 15 -35 7 -26 -17 -28 -54 -3 -61
12 -3 21 -9 21 -14 0 -5 -10 -5 -22 0 -42 15 -32 91 12 91 9 0 25 -9 35 -20z
m-16 -14 c9 -10 8 -16 -4 -26 -20 -16 -38 -1 -29 23 8 21 18 22 33 3z"/>
<path d="M1297 1463 c-4 -3 -7 -11 -7 -17 0 -6 5 -5 12 2 6 6 9 14 7 17 -3 3
-9 2 -12 -2z"/>
<path d="M998 1795 c15 -29 100 -144 126 -170 11 -12 33 -36 49 -53 26 -31 47
-41 47 -24 0 8 -66 88 -105 128 -11 11 -44 47 -74 79 -30 33 -49 51 -43 40z"/>
<path d="M1140 2149 c0 -4 7 -22 15 -42 8 -19 12 -37 10 -41 -3 -3 0 -2 6 3 7
6 4 20 -10 47 -11 22 -20 36 -21 33z"/>
<path d="M1481 2073 c-1 -17 -7 -23 -24 -23 -13 0 -26 -2 -29 -5 -8 -8 3 -55
13 -55 5 0 7 11 5 25 -4 20 -1 25 15 25 21 0 34 21 26 42 -3 7 -6 3 -6 -9z"/>
<path d="M1180 2053 c0 -7 17 -47 37 -90 20 -43 37 -84 36 -90 0 -7 4 -10 10
-6 7 4 8 0 3 -13 -5 -14 -4 -16 4 -8 7 7 -4 40 -39 115 -28 57 -50 99 -51 92z"/>
<path d="M1228 2043 c12 -2 30 -2 40 0 9 3 -1 5 -23 4 -22 0 -30 -2 -17 -4z"/>
<path d="M1462 1975 c0 -16 2 -22 5 -12 2 9 2 23 0 30 -3 6 -5 -1 -5 -18z"/>
<path d="M1196 1837 c3 -10 9 -15 12 -12 3 3 0 11 -7 18 -10 9 -11 8 -5 -6z"/>
<path d="M1276 1833 c-3 -3 -6 -11 -6 -17 0 -6 5 -4 11 4 9 12 10 11 6 -6 -2
-12 1 -21 8 -21 7 0 10 8 7 19 -5 21 -16 30 -26 21z"/>
<path d="M1304 1763 c-8 -14 -7 -22 8 -37 25 -26 35 -12 17 24 -13 27 -15 29
-25 13z"/>
<path d="M1349 1735 c17 -33 31 -51 31 -40 0 6 -10 21 -21 35 -13 17 -17 18
-10 5z"/>
<path d="M945 1680 c-6 -10 41 -60 57 -60 10 0 -34 70 -44 70 -4 0 -10 -4 -13
-10z"/>
<path d="M630 1650 c-12 -16 -19 -30 -16 -30 2 0 14 14 26 30 12 17 19 30 16
30 -2 0 -14 -13 -26 -30z"/>
<path d="M1965 1620 c-91 -43 -155 -55 -290 -54 -119 1 -197 12 -271 41 -15 6
-16 0 -10 -53 13 -105 14 -139 3 -152 -21 -27 6 -26 29 1 22 26 28 28 71 22
59 -8 61 -9 71 -48 8 -32 9 -32 78 -35 38 -2 88 0 112 3 38 6 42 9 42 35 0 33
13 40 92 47 50 4 57 3 63 -16 4 -13 15 -21 27 -21 20 0 20 1 5 18 -24 26 -21
81 8 158 14 36 25 68 25 70 0 7 -15 3 -55 -16z"/>
<path d="M680 1570 c8 -5 20 -10 25 -10 6 0 3 5 -5 10 -8 5 -19 10 -25 10 -5
0 -3 -5 5 -10z"/>
<path d="M880 1573 c0 -5 7 -18 15 -29 13 -18 14 -18 8 4 -5 22 -23 41 -23 25z"/>
<path d="M838 1493 c-4 -14 2 -18 26 -20 44 -3 76 5 76 19 0 9 -3 9 -12 0 -16
-16 -52 -16 -42 0 4 6 3 8 -4 4 -6 -3 -13 -2 -17 4 -9 15 -22 12 -27 -7z"/>
<path d="M797 1489 c7 -7 15 -10 18 -7 3 3 -2 9 -12 12 -14 6 -15 5 -6 -5z"/>
<path d="M956 1485 c4 -8 10 -15 15 -15 4 0 6 7 3 15 -4 8 -10 15 -15 15 -4 0
-6 -7 -3 -15z"/>
<path d="M1875 1185 c-19 -18 -25 -35 -25 -65 0 -30 6 -47 25 -65 25 -26 52
-34 39 -13 -13 20 -15 127 -4 149 15 28 -5 25 -35 -6z"/>
<path d="M1935 1120 c0 -87 0 -87 22 -77 50 23 50 131 0 154 -22 10 -22 10
-22 -77z"/>
<path d="M1061 1174 c-29 -37 -27 -89 4 -119 13 -14 28 -25 32 -25 4 0 8 38 8
85 0 93 -9 104 -44 59z"/>
<path d="M1143 1182 c10 -10 17 -25 17 -32 0 -10 3 -11 11 -3 17 17 1 53 -23
53 -20 0 -20 -1 -5 -18z"/>
<path d="M1207 1118 c1 -81 2 -82 27 -84 l26 -1 0 84 0 83 -27 0 -28 0 2 -82z"/>
<path d="M1300 1180 c11 -11 22 -20 24 -20 3 0 4 9 3 20 -1 14 -8 20 -24 20
l-23 0 20 -20z"/>
<path d="M1400 1118 c27 -45 56 -83 65 -84 26 -4 18 49 -17 110 -29 50 -36 56
-65 56 l-32 0 49 -82z"/>
<path d="M1458 1188 c6 -7 12 -26 15 -43 4 -28 4 -27 6 7 0 20 7 39 14 41 6 3
-1 6 -17 6 -22 1 -26 -2 -18 -11z"/>
<path d="M1517 1180 c-8 -29 6 -32 20 -4 9 19 8 24 -2 24 -7 0 -15 -9 -18 -20z"/>
<path d="M1560 1131 c0 -38 -2 -75 -5 -83 -4 -9 5 -13 30 -14 27 0 34 3 30 14
-3 7 -5 45 -5 83 0 67 -1 69 -25 69 -24 0 -25 -2 -25 -69z"/>
<path d="M1627 1188 c6 -7 13 -20 16 -28 3 -9 6 -3 6 13 1 19 -4 27 -15 27
-12 0 -14 -4 -7 -12z"/>
<path d="M1685 1117 l0 -82 33 -1 c24 0 31 3 27 14 -3 7 -5 45 -5 83 0 69 0
69 -27 69 l-28 0 0 -83z"/>
<path d="M1758 1188 c15 -15 16 -55 1 -64 -8 -4 -8 -9 0 -17 6 -6 11 -24 11
-39 0 -24 4 -28 30 -28 21 0 30 5 30 16 0 9 -5 12 -12 8 -8 -5 -9 -2 -5 9 3 9
-1 23 -9 32 -14 13 -14 17 0 31 19 18 19 20 6 45 -7 11 -21 19 -37 19 -21 0
-24 -3 -15 -12z"/>
<path d="M2087 1118 c1 -87 1 -87 51 -79 4 1 8 37 9 81 l2 80 -32 0 -32 0 2
-82z"/>
<path d="M2169 1174 c4 -15 4 -51 1 -80 -4 -39 -3 -54 6 -54 37 0 65 80 43
121 -23 46 -62 55 -50 13z"/>
<path d="M2255 1117 l0 -84 27 1 28 1 0 83 0 82 -27 0 -28 0 0 -83z"/>
<path d="M2339 1191 c7 -5 17 -15 22 -22 6 -10 9 -8 9 9 0 16 -6 22 -22 22
-17 0 -19 -3 -9 -9z"/>
<path d="M1287 1138 c-3 -12 -2 -29 3 -37 7 -12 9 -6 10 22 0 42 -5 48 -13 15z"/>
<path d="M2334 1136 c-3 -8 -1 -23 5 -33 9 -15 10 -13 11 15 0 34 -7 42 -16
18z"/>
<path d="M1361 1108 c1 -18 -1 -42 -4 -53 -6 -16 -3 -21 13 -21 20 0 27 11 12
20 -5 3 -7 21 -6 40 2 20 -1 38 -7 42 -6 3 -9 -8 -8 -28z"/>
<path d="M1148 1059 c-21 -23 -23 -30 -5 -23 14 5 41 44 30 43 -5 0 -16 -9
-25 -20z"/>
<path d="M1298 1060 c-15 -17 -15 -18 8 -23 20 -3 24 0 24 19 0 28 -9 29 -32
4z"/>
<path d="M2348 1059 c-23 -24 -23 -27 4 -25 14 1 22 9 24 24 5 27 -5 27 -28 1z"/>
<path d="M1296 925 c-3 -8 -2 -15 3 -15 5 0 14 7 21 15 10 12 10 15 -3 15 -8
0 -17 -7 -21 -15z"/>
<path d="M140 896 c-1 0 -2 -38 -3 -84 l-2 -82 38 0 c26 0 36 4 31 11 -4 7 -6
43 -5 80 1 38 -2 70 -6 70 -17 3 -53 6 -53 5z"/>
<path d="M210 892 c0 -4 12 -15 26 -26 26 -18 26 -18 22 4 -2 15 -11 24 -25
26 -13 2 -23 1 -23 -4z"/>
<path d="M303 885 c-44 -31 -37 -131 10 -152 22 -10 22 -10 22 78 0 49 -2 89
-5 89 -3 0 -15 -7 -27 -15z"/>
<path d="M360 880 c12 -23 11 -116 -1 -142 -7 -13 -5 -15 11 -11 50 13 67 99
29 147 -25 32 -55 37 -39 6z"/>
<path d="M450 896 c-1 0 -2 -38 -3 -84 l-2 -82 40 1 c22 0 34 3 28 6 -9 3 -13
29 -13 78 0 70 -1 73 -25 77 -14 3 -25 5 -25 4z"/>
<path d="M527 826 c3 -87 6 -96 37 -96 26 0 48 21 28 28 -7 2 -12 12 -12 22 0
10 -6 20 -12 23 -10 3 -10 7 0 20 21 25 11 60 -18 67 l-26 7 3 -71z"/>
<path d="M870 876 c0 -12 4 -36 9 -53 8 -27 6 -35 -7 -43 -16 -9 -16 -9 1 -10
10 0 17 -8 17 -20 0 -16 7 -20 34 -20 l34 0 -20 79 c-17 68 -23 80 -44 84 -19
3 -24 0 -24 -17z"/>
<path d="M1060 893 c0 -2 5 -9 10 -16 6 -7 17 -21 25 -32 14 -19 14 -19 15 11
0 26 -5 33 -25 36 -14 3 -25 3 -25 1z"/>
<path d="M1133 888 c-2 -5 1 -8 7 -8 14 0 11 -118 -3 -137 -7 -10 0 -13 29
-13 l39 0 -2 82 -1 81 -32 1 c-18 1 -34 -2 -37 -6z"/>
<path d="M1255 875 c-39 -38 -32 -120 13 -144 15 -8 17 -1 17 80 0 49 -1 89
-3 89 -2 0 -14 -11 -27 -25z"/>
<path d="M1315 811 c0 -78 2 -88 16 -81 58 32 61 119 4 156 -19 13 -20 11 -20
-75z"/>
<path d="M1402 890 c2 -3 22 -40 46 -83 31 -54 49 -77 63 -77 30 0 24 41 -15
106 -30 49 -39 57 -65 58 -17 1 -30 -1 -29 -4z"/>
<path d="M1500 888 c0 -4 5 -10 10 -13 6 -3 10 -20 10 -37 0 -41 6 -33 12 17
5 35 3 41 -13 41 -11 0 -19 -4 -19 -8z"/>
<path d="M1645 886 c-2 -6 -5 -44 -7 -84 l-3 -72 40 0 c22 0 36 4 30 8 -5 4
-10 40 -10 81 0 71 -1 74 -23 76 -13 1 -25 -3 -27 -9z"/>
<path d="M1715 844 c0 -49 2 -53 20 -48 27 9 36 24 33 58 -2 22 -9 31 -28 36
-24 7 -25 6 -25 -46z"/>
<path d="M1825 892 c-18 -6 -20 -16 -20 -85 l0 -77 40 1 c22 0 34 3 28 6 -9 3
-13 30 -13 84 0 43 -3 79 -7 78 -5 -1 -17 -4 -28 -7z"/>
<path d="M2012 893 c-17 -6 -42 -57 -42 -83 0 -31 26 -77 47 -82 16 -4 18 4
18 84 0 48 -2 88 -5 87 -3 0 -11 -3 -18 -6z"/>
<path d="M2055 810 c0 -50 3 -90 6 -90 3 0 18 11 33 25 36 33 37 95 1 130 -13
14 -28 25 -32 25 -4 0 -8 -41 -8 -90z"/>
<path d="M2370 895 c0 -3 9 -15 20 -27 l20 -22 0 21 c0 11 -7 24 -16 27 -19 7
-24 8 -24 1z"/>
<path d="M2452 884 c-36 -25 -26 -63 27 -98 41 -27 43 -30 25 -43 -17 -12 -17
-13 2 -13 28 0 44 19 44 52 0 22 -9 33 -41 53 -31 20 -39 30 -34 45 8 24 6 24
-23 4z"/>
<path d="M2506 893 c-4 -5 30 -43 38 -43 3 0 4 9 3 19 -1 18 -30 35 -41 24z"/>
<path d="M2585 813 l0 -83 40 0 c22 0 35 4 29 8 -6 4 -10 38 -10 79 l1 71 -30
4 -30 3 0 -82z"/>
<path d="M2708 889 c-10 -5 -22 -28 -28 -50 -12 -45 0 -82 35 -105 19 -13 20
-11 20 76 0 50 -2 90 -5 90 -3 0 -13 -5 -22 -11z"/>
<path d="M2760 885 c8 -10 11 -40 8 -89 -3 -68 -2 -73 14 -65 45 24 52 106 13
144 -27 28 -56 36 -35 10z"/>
<path d="M2852 893 c1 -4 23 -43 48 -85 47 -81 80 -103 80 -53 0 18 -45 110
-64 132 -6 7 -67 12 -64 6z"/>
<path d="M2955 891 c-3 -2 -1 -9 4 -15 5 -6 11 -24 14 -41 4 -27 4 -27 6 8 0
20 6 37 11 37 6 0 10 4 10 9 0 10 -37 11 -45 2z"/>
<path d="M3074 893 c-8 -3 -8 -18 -1 -54 8 -41 7 -53 -4 -60 -11 -7 -11 -9 4
-9 10 0 17 -8 17 -20 0 -16 7 -20 35 -20 31 0 34 2 26 18 -5 9 -14 45 -21 79
-12 59 -26 76 -56 66z"/>
<path d="M3185 813 l0 -83 28 0 c27 0 27 0 27 69 0 38 2 75 5 83 4 9 -5 13
-27 14 l-33 0 0 -83z"/>
<path d="M634 868 c8 -13 22 -50 32 -83 l17 -60 12 30 c19 47 27 87 16 81 -5
-4 -12 7 -16 24 -6 26 -11 30 -41 30 -33 0 -34 -1 -20 -22z"/>
<path d="M728 810 l-3 -80 40 0 c26 0 35 3 27 9 -10 6 -13 28 -10 80 l3 71
-27 0 c-26 0 -27 -1 -30 -80z"/>
<path d="M996 868 c-22 -31 -21 -101 2 -120 35 -30 37 -27 37 58 0 89 -10 104
-39 62z"/>
<path d="M1887 824 c1 -37 4 -73 7 -80 5 -14 47 -20 58 -8 8 7 -17 54 -34 66
-10 7 -9 11 5 19 31 18 15 69 -22 69 -13 0 -16 -12 -14 -66z"/>
<path d="M2145 810 l0 -80 40 1 c22 0 34 3 28 6 -9 3 -13 29 -13 79 l0 74 -27
0 -28 0 0 -80z"/>
<path d="M2240 870 c11 -11 21 -20 23 -20 1 0 3 9 4 20 1 15 -4 20 -23 20
l-24 0 20 -20z"/>
<path d="M2295 810 l0 -80 28 0 27 0 0 80 0 80 -27 0 -28 0 0 -80z"/>
<path d="M843 810 c-5 -22 -7 -40 -3 -40 8 0 24 69 18 76 -2 2 -9 -14 -15 -36z"/>
<path d="M2225 830 c-3 -11 -2 -28 4 -37 8 -15 10 -11 11 20 0 41 -5 47 -15
17z"/>
<path d="M2375 830 c-3 -11 -2 -28 4 -37 8 -15 10 -11 11 20 0 41 -5 47 -15
17z"/>
<path d="M3041 803 c-7 -26 -17 -53 -23 -60 -8 -10 -5 -13 11 -13 12 0 20 4
16 9 -3 5 -1 31 5 57 14 62 6 68 -9 7z"/>
<path d="M216 823 c-4 -9 0 -23 9 -32 13 -14 15 -12 15 17 0 34 -14 43 -24 15z"/>
<path d="M2862 796 c0 -25 -3 -50 -7 -56 -3 -6 3 -10 15 -10 12 0 19 4 16 8
-3 4 -7 28 -10 51 -7 59 -14 63 -14 7z"/>
<path d="M1410 782 c-4 -46 -3 -52 14 -52 14 0 16 3 8 13 -6 7 -12 30 -14 52
-3 38 -4 38 -8 -13z"/>
<path d="M642 785 c-1 -17 -7 -36 -14 -43 -9 -9 -5 -12 18 -12 16 0 24 4 17 8
-6 4 -13 23 -16 42 -4 34 -4 34 -5 5z"/>
<path d="M2430 762 c0 -24 5 -31 25 -34 27 -6 34 6 10 16 -8 3 -15 12 -15 20
0 8 -4 18 -10 21 -6 4 -10 -6 -10 -23z"/>
<path d="M1083 754 c-15 -17 -17 -24 -8 -24 8 0 19 9 25 21 17 30 8 31 -17 3z"/>
<path d="M2383 754 l-22 -24 24 0 c20 0 25 5 25 25 0 29 1 29 -27 -1z"/>
<path d="M3276 755 c-16 -24 -16 -25 4 -25 15 0 20 7 20 25 0 14 -2 25 -4 25
-2 0 -11 -11 -20 -25z"/>
<path d="M820 745 c-10 -13 -9 -15 8 -15 15 0 20 5 16 15 -4 8 -7 15 -9 15 -1
0 -8 -7 -15 -15z"/>
<path d="M771 571 c-12 -12 -21 -25 -21 -30 0 -14 28 -33 40 -26 14 9 13 32
-2 38 -10 4 -9 8 2 16 8 5 12 13 8 16 -3 4 -16 -3 -27 -14z"/>
<path d="M912 567 c-29 -31 -30 -95 -2 -125 37 -40 45 -29 45 63 0 91 -7 101
-43 62z"/>
<path d="M975 500 c0 -87 1 -89 20 -76 50 32 57 120 12 151 -12 8 -24 15 -27
15 -3 0 -5 -40 -5 -90z"/>
<path d="M1070 568 c-11 -12 -18 -28 -15 -36 3 -7 5 -18 5 -23 0 -5 18 -18 40
-29 43 -22 47 -29 28 -48 -9 -9 -9 -12 0 -12 17 0 52 37 52 55 0 16 -35 55
-49 55 -5 0 -17 7 -26 16 -12 12 -13 19 -4 30 20 24 -8 16 -31 -8z"/>
<path d="M1142 561 c13 -14 24 -28 26 -30 1 -2 2 9 2 25 0 24 -4 29 -26 30
l-26 2 24 -27z"/>
<path d="M1225 565 c-45 -44 -25 -145 28 -145 16 0 18 3 9 12 -16 16 -16 130
0 146 9 9 9 12 0 12 -7 0 -24 -11 -37 -25z"/>
<path d="M1293 571 c8 -9 19 -25 25 -36 10 -18 11 -16 12 15 0 31 -3 35 -26
36 -23 2 -24 0 -11 -15z"/>
<path d="M1400 578 c1 -7 5 -32 9 -56 7 -35 6 -45 -7 -49 -12 -5 -10 -8 7 -15
15 -5 21 -14 17 -23 -4 -12 3 -15 30 -15 25 0 34 4 31 13 -3 6 -13 45 -23 85
-16 64 -20 72 -41 72 -13 0 -23 -6 -23 -12z"/>
<path d="M1519 558 c9 -42 7 -110 -3 -126 -5 -9 4 -12 33 -12 31 0 39 3 35 15
-3 8 -7 45 -7 82 l-2 68 -32 3 c-30 3 -31 2 -24 -30z"/>
<path d="M1596 525 c4 -87 10 -105 39 -105 26 0 46 21 27 28 -7 2 -12 12 -12
22 0 10 -5 20 -12 22 -7 3 -6 12 6 30 17 26 17 27 -3 47 -37 37 -47 27 -45
-44z"/>
<path d="M1770 570 c-32 -32 -24 -60 26 -91 35 -21 44 -43 22 -52 -10 -4 -10
-6 0 -6 28 -2 52 20 52 48 0 27 -26 61 -47 61 -6 0 -16 7 -23 15 -10 12 -10
18 0 30 19 23 -6 19 -30 -5z"/>
<path d="M1842 561 c13 -14 24 -28 26 -30 1 -2 2 9 2 25 0 24 -4 29 -26 30
l-26 2 24 -27z"/>
<path d="M1900 581 c0 -5 6 -11 13 -14 15 -5 12 -114 -4 -133 -9 -11 -7 -14 9
-14 17 0 19 5 16 48 l-4 47 19 -50 18 -50 17 54 c9 33 12 57 7 61 -6 3 -14 18
-20 33 -8 21 -17 27 -41 27 -16 0 -30 -4 -30 -9z"/>
<path d="M2008 505 l-3 -85 35 0 35 0 -5 65 c-3 36 -2 74 2 85 6 18 3 20 -27
20 l-34 0 -3 -85z"/>
<path d="M2105 505 l0 -85 39 0 c33 0 37 2 26 15 -8 10 -11 39 -8 85 l4 70
-31 0 -30 0 0 -85z"/>
<path d="M2197 583 c-11 -10 -8 -43 3 -43 6 0 10 4 10 9 0 5 3 16 6 25 6 16
-7 22 -19 9z"/>
<path d="M2240 517 c0 -43 -5 -78 -12 -85 -9 -9 -3 -12 28 -12 l39 0 -3 85
c-3 82 -4 85 -28 85 -23 0 -24 -2 -24 -73z"/>
<path d="M2311 578 c0 -7 4 -22 9 -33 7 -17 9 -15 9 13 1 17 -3 32 -9 32 -5 0
-10 -6 -9 -12z"/>
<path d="M2365 505 l0 -85 30 0 30 0 0 85 1 85 -31 0 -30 0 0 -85z"/>
<path d="M2457 554 c4 -25 2 -39 -8 -45 -12 -7 -12 -9 0 -9 10 0 12 -10 8 -40
-5 -39 -5 -40 26 -40 l32 0 0 85 0 85 -32 0 c-31 0 -32 -1 -26 -36z"/>
<path d="M2563 574 c-3 -9 0 -20 7 -24 11 -7 11 -12 -1 -26 -13 -16 -12 -16 7
-6 27 15 38 41 23 58 -15 18 -28 18 -36 -2z"/>
<path d="M2623 574 c-3 -9 0 -20 7 -24 11 -7 11 -12 -1 -26 -13 -16 -12 -16 7
-6 27 15 38 41 23 58 -15 18 -28 18 -36 -2z"/>
<path d="M821 558 c-9 -23 2 -48 21 -48 16 0 21 32 7 41 -12 8 -12 11 1 19 13
8 12 10 -3 10 -10 0 -21 -10 -26 -22z"/>
<path d="M1376 500 c-5 -19 -14 -45 -22 -57 -14 -22 -13 -23 13 -23 19 0 24 3
16 11 -7 7 -8 22 -1 46 5 19 7 40 5 46 -2 7 -7 -4 -11 -23z"/>
<path d="M1050 445 c0 -20 5 -25 25 -25 26 0 26 0 8 25 -23 31 -33 31 -33 0z"/>
<path d="M1303 443 c-14 -15 -18 -23 -9 -23 16 0 39 26 34 37 -1 4 -13 -2 -25
-14z"/>
<path d="M1752 448 c2 -15 11 -24 27 -26 23 -4 23 -4 5 22 -24 32 -36 33 -32
4z"/>
<path d="M1854 316 c-10 -8 -16 -17 -13 -20 3 -3 14 1 25 8 10 8 16 17 13 20
-3 3 -14 -1 -25 -8z"/>
<path d="M1335 195 l0 -86 30 3 30 3 1 71 c0 39 4 76 8 82 5 8 -5 12 -31 12
l-38 0 0 -85z"/>
<path d="M1478 208 c3 -77 16 -98 55 -98 16 0 17 3 7 15 -8 10 -11 39 -8 85
l4 70 -31 0 -30 0 3 -72z"/>
<path d="M1588 215 c4 -53 1 -70 -13 -85 -10 -11 -13 -20 -8 -20 21 0 31 27
35 98 2 47 0 72 -7 72 -7 0 -10 -23 -7 -65z"/>
<path d="M1685 195 c0 -72 3 -85 16 -85 27 0 36 21 41 98 l5 72 -31 0 -31 0 0
-85z"/>
<path d="M1835 243 c3 -21 9 -48 12 -60 3 -15 -1 -23 -14 -26 -14 -4 -13 -5 6
-6 18 -1 22 -5 18 -21 -4 -17 0 -20 29 -20 38 0 38 0 25 50 -6 19 -15 54 -21
78 -9 36 -15 42 -36 42 -25 0 -26 -2 -19 -37z"/>
<path d="M1963 243 c14 -21 36 -59 51 -85 15 -27 33 -48 40 -48 18 0 26 43 13
66 -7 12 -7 19 0 21 6 2 9 12 6 22 -3 11 0 28 6 40 10 18 9 21 -8 21 -17 0
-18 -5 -14 -40 3 -22 3 -40 0 -40 -3 0 -16 18 -28 40 -19 34 -28 40 -56 40
l-33 0 23 -37z"/>
<path d="M1810 204 c-6 -14 -10 -31 -10 -37 0 -7 -7 -23 -16 -35 -15 -21 -14
-22 12 -22 20 0 25 3 17 11 -8 8 -7 24 2 60 14 52 11 66 -5 23z"/>
<path d="M1961 187 c-1 -21 -6 -47 -11 -58 -9 -16 -7 -19 8 -19 17 0 19 6 15
48 -6 63 -11 75 -12 29z"/>
<path d="M1440 158 c0 -6 -7 -20 -17 -30 -15 -17 -15 -18 5 -18 18 0 22 6 22
30 0 17 -2 30 -5 30 -3 0 -5 -5 -5 -12z"/>
<path d="M1634 155 c-4 -9 0 -24 9 -33 19 -19 26 -15 29 18 4 29 -28 41 -38
15z"/>
</g>
</svg>
